<svg xmlns="http://www.w3.org/2000/svg" width="62" height="85" fill="#085484"><path d="M30.6 84.7c-8.2 0-15.8-3.2-21.6-8.9C-1.2 65.6-2.8 49.4 5.1 37.4L29.3.7c.3-.4.8-.7 1.3-.7s1 .3 1.3.7l24.2 36.7c7.9 12.1 6.3 28.2-3.9 38.4-5.7 5.7-13.4 8.9-21.6 8.9zm0-80.6l-23 34.8C.4 49.8 1.9 64.3 11.1 73.5c5.2 5.2 12.1 8.1 19.5 8.1 7.3 0 14.3-2.9 19.5-8.1 9.2-9.2 10.7-23.7 3.5-34.6l-23-34.8z"/><path d="M30.6 77.3c-6.2 0-12-2.4-16.4-6.8-2.7-2.7-4.7-6-5.8-9.6-.2-.8.2-1.7 1-1.9.8-.2 1.7.2 1.9 1 1 3.1 2.7 6 5 8.3 3.8 3.8 8.9 5.9 14.3 5.9.8 0 1.5.7 1.5 1.5.1.9-.6 1.6-1.5 1.6z"/></svg>