<svg xmlns="http://www.w3.org/2000/svg" width="109" height="89" fill="#085484"><path d="M54.4 75.1c-20.5 0-39.7-11-54.1-30.8-.4-.5-.4-1.3 0-1.8 14.4-19.9 33.6-30.8 54.1-30.8s39.7 11 54.1 30.8c.4.5.4 1.3 0 1.8-14.4 19.8-33.6 30.8-54.1 30.8zm-51-31.8C17.2 61.8 35.2 72 54.4 72s37.3-10.2 51-28.7c-13.8-18.5-31.8-28.7-51-28.7s-37.2 10.2-51 28.7z"/><path d="M54.4 67.6c-13.4 0-24.2-10.9-24.2-24.2 0-13.4 10.9-24.2 24.2-24.2 13.4 0 24.2 10.9 24.2 24.2 0 13.3-10.8 24.2-24.2 24.2zm0-45.4c-11.7 0-21.2 9.5-21.2 21.2s9.5 21.2 21.2 21.2 21.2-9.5 21.2-21.2-9.5-21.2-21.2-21.2z"/><path d="M54.4 50.3c-3.8 0-6.9-3.1-6.9-6.9 0-3.8 3.1-6.9 6.9-6.9 3.8 0 6.9 3.1 6.9 6.9 0 3.8-3.1 6.9-6.9 6.9zm0-10.8c-2.1 0-3.9 1.7-3.9 3.9 0 2.1 1.7 3.9 3.9 3.9 2.1 0 3.9-1.7 3.9-3.9s-1.7-3.9-3.9-3.9zM15.5 29.3c-.5 0-.9-.2-1.2-.6l-6.6-8.6c-.5-.7-.4-1.6.3-2.1s1.6-.4 2.1.3l6.6 8.6c.5.7.4 1.6-.3 2.1-.3.2-.6.3-.9.3zm18.7-11.1c-.6 0-1.2-.4-1.4-1l-4-10.1c-.3-.8.1-1.7.8-2 .8-.3 1.7.1 2 .8l4 10.1c.3.8-.1 1.7-.8 2-.2.2-.4.2-.6.2zm40.9 0c-.2 0-.4 0-.6-.1-.8-.3-1.2-1.2-.8-2l4-10.1c.3-.8 1.2-1.2 2-.8.8.3 1.2 1.2.8 2l-4 10.1c-.2.6-.8.9-1.4.9zm-20.6-4.4c-.8 0-1.5-.7-1.5-1.5l-.1-10.8c0-.8.7-1.5 1.5-1.5s1.5.7 1.5 1.5l.1 10.8c0 .8-.7 1.5-1.5 1.5zm38.7 15.5c-.3 0-.6-.1-.9-.3-.7-.5-.8-1.5-.3-2.1l6.6-8.6c.5-.7 1.5-.8 2.1-.3.7.5.8 1.5.3 2.1l-6.6 8.6c-.3.4-.7.6-1.2.6zm6.6 41.2c-.5 0-.9-.2-1.2-.6L92 61.3c-.5-.7-.4-1.6.3-2.1s1.6-.4 2.1.3l6.6 8.6c.5.7.4 1.6-.3 2.1-.2.2-.5.3-.9.3zM78.5 83c-.6 0-1.2-.4-1.4-1l-4-10.1c-.3-.8.1-1.7.8-2 .8-.3 1.7.1 2 .8l4 10.1c.3.8-.1 1.7-.8 2-.2.2-.4.2-.6.2zm-48.9 0c-.2 0-.4 0-.6-.1-.8-.3-1.2-1.2-.8-2l4-10.1c.3-.8 1.2-1.2 2-.8.8.3 1.2 1.2.8 2l-4 10.1c-.2.6-.8.9-1.4.9zm24.7 5.2c-.8 0-1.5-.7-1.5-1.5l-.1-10.8c0-.8.7-1.5 1.5-1.5s1.5.7 1.5 1.5l.1 10.8c.1.8-.6 1.5-1.5 1.5zM8.9 70.5c-.3 0-.6-.1-.9-.3-.7-.5-.8-1.5-.3-2.1l6.6-8.6c.5-.7 1.5-.8 2.1-.3.7.5.8 1.5.3 2.1l-6.6 8.6c-.3.4-.8.6-1.2.6z"/></svg>