<svg xmlns="http://www.w3.org/2000/svg" width="93" height="90" fill="#085484"><path d="M56.9 75.3c-11.7 0-21.1-9.5-21.1-21.1 0-11.7 9.5-21.1 21.1-21.1 11.7 0 21.1 9.5 21.1 21.1.1 11.6-9.4 21.1-21.1 21.1zm0-39.3c-10 0-18.1 8.1-18.1 18.1 0 10 8.1 18.1 18.1 18.1 10 0 18.1-8.1 18.1-18.1C75 44.2 66.9 36 56.9 36zm20.2 39.8c-.4 0-.8-.1-1.1-.4L73.6 73c-.6-.6-.6-1.6 0-2.1.6-.6 1.6-.6 2.1 0l2.4 2.4c.6.6.6 1.6 0 2.1-.3.3-.7.4-1 .4z"/><path d="M87.2 89.8c-.9 0-1.8-.3-2.5-1l-9.6-9.6c-1.4-1.4-1.4-3.7 0-5.1l1.7-1.7c1.4-1.4 3.7-1.4 5.1 0l9.6 9.6c.7.7 1.1 1.6 1.1 2.5 0 1-.4 1.9-1.1 2.5l-1.7 1.7c-.7.7-1.6 1.1-2.6 1.1zm-7.8-15.5c-.1 0-.3.1-.4.2l-1.7 1.7c-.2.2-.2.6 0 .8l9.6 9.6c.2.2.6.2.8 0l1.7-1.7c.1-.1.2-.3.2-.4 0-.1 0-.2-.2-.4l-9.6-9.6c-.1-.1-.3-.2-.4-.2zM60 66.7h-6.1c-1 0-1.9-.8-1.9-1.9v-5.6h-5.6c-1 0-1.9-.8-1.9-1.9v-6.1c0-1 .8-1.9 1.9-1.9H52v-5.6c0-1 .8-1.9 1.9-1.9H60c1 0 1.9.8 1.9 1.9v5.6h5.6c1 0 1.9.8 1.9 1.9v6.1c0 1-.8 1.9-1.9 1.9h-5.6v5.6c-.1 1-.9 1.9-1.9 1.9zm-5-3.1h3.8V58c0-1 .8-1.9 1.9-1.9h5.6v-3.8h-5.6c-1 0-1.9-.8-1.9-1.9v-5.6H55v5.6c0 1-.8 1.9-1.9 1.9h-5.6v3.8h5.6c1 0 1.9.8 1.9 1.9v5.6z"/><path d="M68.4 89.8H1.5c-.8 0-1.5-.7-1.5-1.5V1.5C0 .7.7 0 1.5 0h66.9c.8 0 1.5.7 1.5 1.5v28.8c0 .8-.7 1.5-1.5 1.5s-1.5-.7-1.5-1.5V3H3.1v83.7h63.8V79c0-.8.7-1.5 1.5-1.5s1.5.7 1.5 1.5v9.2c.1.9-.6 1.6-1.5 1.6z"/><path d="M58.2 16.9H11.8c-.8 0-1.5-.7-1.5-1.5s.7-1.5 1.5-1.5h46.4c.8 0 1.5.7 1.5 1.5 0 .9-.7 1.5-1.5 1.5zm0 11.7H11.8c-.8 0-1.5-.7-1.5-1.5s.7-1.5 1.5-1.5h46.4c.8 0 1.5.7 1.5 1.5s-.7 1.5-1.5 1.5zM31.7 40.3H11.8c-.8 0-1.5-.7-1.5-1.5s.7-1.5 1.5-1.5h19.9c.8 0 1.5.7 1.5 1.5s-.7 1.5-1.5 1.5z"/></svg>